<svg xmlns="http://www.w3.org/2000/svg" width="1951" height="1267" viewBox="0 0 1951 1267">
<rect width="100%" height="100%" fill="#000"/>
<g id="playable-cells" fill="#fff" stroke="#777" stroke-width="0.8">
<polygon id="C000" data-cell-id="0" data-x="1" data-y="-12" data-parity="dark" points="1832.645000,41.242500 1899.395000,74.617500 1832.645000,107.992500 1765.895000,74.617500"/>
<polygon id="C001" data-cell-id="1" data-x="0" data-y="-11" data-parity="dark" points="1699.145000,41.242500 1765.895000,74.617500 1699.145000,107.992500 1632.395000,74.617500"/>
<polygon id="C002" data-cell-id="2" data-x="1" data-y="-11" data-parity="light" points="1765.895000,74.617500 1832.645000,107.992500 1765.895000,141.367500 1699.145000,107.992500"/>
<polygon id="C003" data-cell-id="3" data-x="2" data-y="-11" data-parity="dark" points="1832.645000,107.992500 1899.395000,141.367500 1832.645000,174.742500 1765.895000,141.367500"/>
<polygon id="C004" data-cell-id="4" data-x="-1" data-y="-10" data-parity="dark" points="1565.645000,41.242500 1632.395000,74.617500 1565.645000,107.992500 1498.895000,74.617500"/>
<polygon id="C005" data-cell-id="5" data-x="0" data-y="-10" data-parity="light" points="1632.395000,74.617500 1699.145000,107.992500 1632.395000,141.367500 1565.645000,107.992500"/>
<polygon id="C006" data-cell-id="6" data-x="1" data-y="-10" data-parity="dark" points="1699.145000,107.992500 1765.895000,141.367500 1699.145000,174.742500 1632.395000,141.367500"/>
<polygon id="C007" data-cell-id="7" data-x="2" data-y="-10" data-parity="light" points="1765.895000,141.367500 1832.645000,174.742500 1765.895000,208.117500 1699.145000,174.742500"/>
<polygon id="C008" data-cell-id="8" data-x="3" data-y="-10" data-parity="dark" points="1832.645000,174.742500 1899.395000,208.117500 1832.645000,241.492500 1765.895000,208.117500"/>
<polygon id="C009" data-cell-id="9" data-x="-2" data-y="-9" data-parity="dark" points="1432.145000,41.242500 1498.895000,74.617500 1432.145000,107.992500 1365.395000,74.617500"/>
<polygon id="C010" data-cell-id="10" data-x="-1" data-y="-9" data-parity="light" points="1498.895000,74.617500 1565.645000,107.992500 1498.895000,141.367500 1432.145000,107.992500"/>
<polygon id="C011" data-cell-id="11" data-x="0" data-y="-9" data-parity="dark" points="1565.645000,107.992500 1632.395000,141.367500 1565.645000,174.742500 1498.895000,141.367500"/>
<polygon id="C012" data-cell-id="12" data-x="1" data-y="-9" data-parity="light" points="1632.395000,141.367500 1699.145000,174.742500 1632.395000,208.117500 1565.645000,174.742500"/>
<polygon id="C013" data-cell-id="13" data-x="2" data-y="-9" data-parity="dark" points="1699.145000,174.742500 1765.895000,208.117500 1699.145000,241.492500 1632.395000,208.117500"/>
<polygon id="C014" data-cell-id="14" data-x="3" data-y="-9" data-parity="light" points="1765.895000,208.117500 1832.645000,241.492500 1765.895000,274.867500 1699.145000,241.492500"/>
<polygon id="C015" data-cell-id="15" data-x="4" data-y="-9" data-parity="dark" points="1832.645000,241.492500 1899.395000,274.867500 1832.645000,308.242500 1765.895000,274.867500"/>
<polygon id="C016" data-cell-id="16" data-x="-3" data-y="-8" data-parity="dark" points="1298.645000,41.242500 1365.395000,74.617500 1298.645000,107.992500 1231.895000,74.617500"/>
<polygon id="C017" data-cell-id="17" data-x="-2" data-y="-8" data-parity="light" points="1365.395000,74.617500 1432.145000,107.992500 1365.395000,141.367500 1298.645000,107.992500"/>
<polygon id="C018" data-cell-id="18" data-x="-1" data-y="-8" data-parity="dark" points="1432.145000,107.992500 1498.895000,141.367500 1432.145000,174.742500 1365.395000,141.367500"/>
<polygon id="C019" data-cell-id="19" data-x="0" data-y="-8" data-parity="light" points="1498.895000,141.367500 1565.645000,174.742500 1498.895000,208.117500 1432.145000,174.742500"/>
<polygon id="C020" data-cell-id="20" data-x="1" data-y="-8" data-parity="dark" points="1565.645000,174.742500 1632.395000,208.117500 1565.645000,241.492500 1498.895000,208.117500"/>
<polygon id="C021" data-cell-id="21" data-x="2" data-y="-8" data-parity="light" points="1632.395000,208.117500 1699.145000,241.492500 1632.395000,274.867500 1565.645000,241.492500"/>
<polygon id="C022" data-cell-id="22" data-x="3" data-y="-8" data-parity="dark" points="1699.145000,241.492500 1765.895000,274.867500 1699.145000,308.242500 1632.395000,274.867500"/>
<polygon id="C023" data-cell-id="23" data-x="4" data-y="-8" data-parity="light" points="1765.895000,274.867500 1832.645000,308.242500 1765.895000,341.617500 1699.145000,308.242500"/>
<polygon id="C024" data-cell-id="24" data-x="5" data-y="-8" data-parity="dark" points="1832.645000,308.242500 1899.395000,341.617500 1832.645000,374.992500 1765.895000,341.617500"/>
<polygon id="C025" data-cell-id="25" data-x="-4" data-y="-7" data-parity="dark" points="1165.145000,41.242500 1231.895000,74.617500 1165.145000,107.992500 1098.395000,74.617500"/>
<polygon id="C026" data-cell-id="26" data-x="-3" data-y="-7" data-parity="light" points="1231.895000,74.617500 1298.645000,107.992500 1231.895000,141.367500 1165.145000,107.992500"/>
<polygon id="C027" data-cell-id="27" data-x="-2" data-y="-7" data-parity="dark" points="1298.645000,107.992500 1365.395000,141.367500 1298.645000,174.742500 1231.895000,141.367500"/>
<polygon id="C028" data-cell-id="28" data-x="-1" data-y="-7" data-parity="light" points="1365.395000,141.367500 1432.145000,174.742500 1365.395000,208.117500 1298.645000,174.742500"/>
<polygon id="C029" data-cell-id="29" data-x="0" data-y="-7" data-parity="dark" points="1432.145000,174.742500 1498.895000,208.117500 1432.145000,241.492500 1365.395000,208.117500"/>
<polygon id="C030" data-cell-id="30" data-x="1" data-y="-7" data-parity="light" points="1498.895000,208.117500 1565.645000,241.492500 1498.895000,274.867500 1432.145000,241.492500"/>
<polygon id="C031" data-cell-id="31" data-x="2" data-y="-7" data-parity="dark" points="1565.645000,241.492500 1632.395000,274.867500 1565.645000,308.242500 1498.895000,274.867500"/>
<polygon id="C032" data-cell-id="32" data-x="3" data-y="-7" data-parity="light" points="1632.395000,274.867500 1699.145000,308.242500 1632.395000,341.617500 1565.645000,308.242500"/>
<polygon id="C033" data-cell-id="33" data-x="4" data-y="-7" data-parity="dark" points="1699.145000,308.242500 1765.895000,341.617500 1699.145000,374.992500 1632.395000,341.617500"/>
<polygon id="C034" data-cell-id="34" data-x="5" data-y="-7" data-parity="light" points="1765.895000,341.617500 1832.645000,374.992500 1765.895000,408.367500 1699.145000,374.992500"/>
<polygon id="C035" data-cell-id="35" data-x="6" data-y="-7" data-parity="dark" points="1832.645000,374.992500 1899.395000,408.367500 1832.645000,441.742500 1765.895000,408.367500"/>
<polygon id="C036" data-cell-id="36" data-x="-5" data-y="-6" data-parity="dark" points="1031.645000,41.242500 1098.395000,74.617500 1031.645000,107.992500 964.895000,74.617500"/>
<polygon id="C037" data-cell-id="37" data-x="-4" data-y="-6" data-parity="light" points="1098.395000,74.617500 1165.145000,107.992500 1098.395000,141.367500 1031.645000,107.992500"/>
<polygon id="C038" data-cell-id="38" data-x="-3" data-y="-6" data-parity="dark" points="1165.145000,107.992500 1231.895000,141.367500 1165.145000,174.742500 1098.395000,141.367500"/>
<polygon id="C039" data-cell-id="39" data-x="-2" data-y="-6" data-parity="light" points="1231.895000,141.367500 1298.645000,174.742500 1231.895000,208.117500 1165.145000,174.742500"/>
<polygon id="C040" data-cell-id="40" data-x="-1" data-y="-6" data-parity="dark" points="1298.645000,174.742500 1365.395000,208.117500 1298.645000,241.492500 1231.895000,208.117500"/>
<polygon id="C041" data-cell-id="41" data-x="0" data-y="-6" data-parity="light" points="1365.395000,208.117500 1432.145000,241.492500 1365.395000,274.867500 1298.645000,241.492500"/>
<polygon id="C042" data-cell-id="42" data-x="1" data-y="-6" data-parity="dark" points="1432.145000,241.492500 1498.895000,274.867500 1432.145000,308.242500 1365.395000,274.867500"/>
<polygon id="C043" data-cell-id="43" data-x="2" data-y="-6" data-parity="light" points="1498.895000,274.867500 1565.645000,308.242500 1498.895000,341.617500 1432.145000,308.242500"/>
<polygon id="C044" data-cell-id="44" data-x="3" data-y="-6" data-parity="dark" points="1565.645000,308.242500 1632.395000,341.617500 1565.645000,374.992500 1498.895000,341.617500"/>
<polygon id="C045" data-cell-id="45" data-x="4" data-y="-6" data-parity="light" points="1632.395000,341.617500 1699.145000,374.992500 1632.395000,408.367500 1565.645000,374.992500"/>
<polygon id="C046" data-cell-id="46" data-x="5" data-y="-6" data-parity="dark" points="1699.145000,374.992500 1765.895000,408.367500 1699.145000,441.742500 1632.395000,408.367500"/>
<polygon id="C047" data-cell-id="47" data-x="6" data-y="-6" data-parity="light" points="1765.895000,408.367500 1832.645000,441.742500 1765.895000,475.117500 1699.145000,441.742500"/>
<polygon id="C048" data-cell-id="48" data-x="7" data-y="-6" data-parity="dark" points="1832.645000,441.742500 1899.395000,475.117500 1832.645000,508.492500 1765.895000,475.117500"/>
<polygon id="C049" data-cell-id="49" data-x="-6" data-y="-5" data-parity="dark" points="898.145000,41.242500 964.895000,74.617500 898.145000,107.992500 831.395000,74.617500"/>
<polygon id="C050" data-cell-id="50" data-x="-5" data-y="-5" data-parity="light" points="964.895000,74.617500 1031.645000,107.992500 964.895000,141.367500 898.145000,107.992500"/>
<polygon id="C051" data-cell-id="51" data-x="-4" data-y="-5" data-parity="dark" points="1031.645000,107.992500 1098.395000,141.367500 1031.645000,174.742500 964.895000,141.367500"/>
<polygon id="C052" data-cell-id="52" data-x="-3" data-y="-5" data-parity="light" points="1098.395000,141.367500 1165.145000,174.742500 1098.395000,208.117500 1031.645000,174.742500"/>
<polygon id="C053" data-cell-id="53" data-x="-2" data-y="-5" data-parity="dark" points="1165.145000,174.742500 1231.895000,208.117500 1165.145000,241.492500 1098.395000,208.117500"/>
<polygon id="C054" data-cell-id="54" data-x="-1" data-y="-5" data-parity="light" points="1231.895000,208.117500 1298.645000,241.492500 1231.895000,274.867500 1165.145000,241.492500"/>
<polygon id="C055" data-cell-id="55" data-x="0" data-y="-5" data-parity="dark" points="1298.645000,241.492500 1365.395000,274.867500 1298.645000,308.242500 1231.895000,274.867500"/>
<polygon id="C056" data-cell-id="56" data-x="1" data-y="-5" data-parity="light" points="1365.395000,274.867500 1432.145000,308.242500 1365.395000,341.617500 1298.645000,308.242500"/>
<polygon id="C057" data-cell-id="57" data-x="2" data-y="-5" data-parity="dark" points="1432.145000,308.242500 1498.895000,341.617500 1432.145000,374.992500 1365.395000,341.617500"/>
<polygon id="C058" data-cell-id="58" data-x="3" data-y="-5" data-parity="light" points="1498.895000,341.617500 1565.645000,374.992500 1498.895000,408.367500 1432.145000,374.992500"/>
<polygon id="C059" data-cell-id="59" data-x="4" data-y="-5" data-parity="dark" points="1565.645000,374.992500 1632.395000,408.367500 1565.645000,441.742500 1498.895000,408.367500"/>
<polygon id="C060" data-cell-id="60" data-x="5" data-y="-5" data-parity="light" points="1632.395000,408.367500 1699.145000,441.742500 1632.395000,475.117500 1565.645000,441.742500"/>
<polygon id="C061" data-cell-id="61" data-x="6" data-y="-5" data-parity="dark" points="1699.145000,441.742500 1765.895000,475.117500 1699.145000,508.492500 1632.395000,475.117500"/>
<polygon id="C062" data-cell-id="62" data-x="7" data-y="-5" data-parity="light" points="1765.895000,475.117500 1832.645000,508.492500 1765.895000,541.867500 1699.145000,508.492500"/>
<polygon id="C063" data-cell-id="63" data-x="8" data-y="-5" data-parity="dark" points="1832.645000,508.492500 1899.395000,541.867500 1832.645000,575.242500 1765.895000,541.867500"/>
<polygon id="C064" data-cell-id="64" data-x="-7" data-y="-4" data-parity="dark" points="764.645000,41.242500 831.395000,74.617500 764.645000,107.992500 697.895000,74.617500"/>
<polygon id="C065" data-cell-id="65" data-x="-6" data-y="-4" data-parity="light" points="831.395000,74.617500 898.145000,107.992500 831.395000,141.367500 764.645000,107.992500"/>
<polygon id="C066" data-cell-id="66" data-x="-5" data-y="-4" data-parity="dark" points="898.145000,107.992500 964.895000,141.367500 898.145000,174.742500 831.395000,141.367500"/>
<polygon id="C067" data-cell-id="67" data-x="-4" data-y="-4" data-parity="light" points="964.895000,141.367500 1031.645000,174.742500 964.895000,208.117500 898.145000,174.742500"/>
<polygon id="C068" data-cell-id="68" data-x="-3" data-y="-4" data-parity="dark" points="1031.645000,174.742500 1098.395000,208.117500 1031.645000,241.492500 964.895000,208.117500"/>
<polygon id="C069" data-cell-id="69" data-x="-2" data-y="-4" data-parity="light" points="1098.395000,208.117500 1165.145000,241.492500 1098.395000,274.867500 1031.645000,241.492500"/>
<polygon id="C070" data-cell-id="70" data-x="-1" data-y="-4" data-parity="dark" points="1165.145000,241.492500 1231.895000,274.867500 1165.145000,308.242500 1098.395000,274.867500"/>
<polygon id="C071" data-cell-id="71" data-x="0" data-y="-4" data-parity="light" points="1231.895000,274.867500 1298.645000,308.242500 1231.895000,341.617500 1165.145000,308.242500"/>
<polygon id="C072" data-cell-id="72" data-x="1" data-y="-4" data-parity="dark" points="1298.645000,308.242500 1365.395000,341.617500 1298.645000,374.992500 1231.895000,341.617500"/>
<polygon id="C073" data-cell-id="73" data-x="2" data-y="-4" data-parity="light" points="1365.395000,341.617500 1432.145000,374.992500 1365.395000,408.367500 1298.645000,374.992500"/>
<polygon id="C074" data-cell-id="74" data-x="3" data-y="-4" data-parity="dark" points="1432.145000,374.992500 1498.895000,408.367500 1432.145000,441.742500 1365.395000,408.367500"/>
<polygon id="C075" data-cell-id="75" data-x="4" data-y="-4" data-parity="light" points="1498.895000,408.367500 1565.645000,441.742500 1498.895000,475.117500 1432.145000,441.742500"/>
<polygon id="C076" data-cell-id="76" data-x="5" data-y="-4" data-parity="dark" points="1565.645000,441.742500 1632.395000,475.117500 1565.645000,508.492500 1498.895000,475.117500"/>
<polygon id="C077" data-cell-id="77" data-x="6" data-y="-4" data-parity="light" points="1632.395000,475.117500 1699.145000,508.492500 1632.395000,541.867500 1565.645000,508.492500"/>
<polygon id="C078" data-cell-id="78" data-x="7" data-y="-4" data-parity="dark" points="1699.145000,508.492500 1765.895000,541.867500 1699.145000,575.242500 1632.395000,541.867500"/>
<polygon id="C079" data-cell-id="79" data-x="8" data-y="-4" data-parity="light" points="1765.895000,541.867500 1832.645000,575.242500 1765.895000,608.617500 1699.145000,575.242500"/>
<polygon id="C080" data-cell-id="80" data-x="9" data-y="-4" data-parity="dark" points="1832.645000,575.242500 1899.395000,608.617500 1832.645000,641.992500 1765.895000,608.617500"/>
<polygon id="C081" data-cell-id="81" data-x="-8" data-y="-3" data-parity="dark" points="631.145000,41.242500 697.895000,74.617500 631.145000,107.992500 564.395000,74.617500"/>
<polygon id="C082" data-cell-id="82" data-x="-7" data-y="-3" data-parity="light" points="697.895000,74.617500 764.645000,107.992500 697.895000,141.367500 631.145000,107.992500"/>
<polygon id="C083" data-cell-id="83" data-x="-6" data-y="-3" data-parity="dark" points="764.645000,107.992500 831.395000,141.367500 764.645000,174.742500 697.895000,141.367500"/>
<polygon id="C084" data-cell-id="84" data-x="-5" data-y="-3" data-parity="light" points="831.395000,141.367500 898.145000,174.742500 831.395000,208.117500 764.645000,174.742500"/>
<polygon id="C085" data-cell-id="85" data-x="-4" data-y="-3" data-parity="dark" points="898.145000,174.742500 964.895000,208.117500 898.145000,241.492500 831.395000,208.117500"/>
<polygon id="C086" data-cell-id="86" data-x="-3" data-y="-3" data-parity="light" points="964.895000,208.117500 1031.645000,241.492500 964.895000,274.867500 898.145000,241.492500"/>
<polygon id="C087" data-cell-id="87" data-x="-2" data-y="-3" data-parity="dark" points="1031.645000,241.492500 1098.395000,274.867500 1031.645000,308.242500 964.895000,274.867500"/>
<polygon id="C088" data-cell-id="88" data-x="-1" data-y="-3" data-parity="light" points="1098.395000,274.867500 1165.145000,308.242500 1098.395000,341.617500 1031.645000,308.242500"/>
<polygon id="C089" data-cell-id="89" data-x="0" data-y="-3" data-parity="dark" points="1165.145000,308.242500 1231.895000,341.617500 1165.145000,374.992500 1098.395000,341.617500"/>
<polygon id="C090" data-cell-id="90" data-x="1" data-y="-3" data-parity="light" points="1231.895000,341.617500 1298.645000,374.992500 1231.895000,408.367500 1165.145000,374.992500"/>
<polygon id="C091" data-cell-id="91" data-x="2" data-y="-3" data-parity="dark" points="1298.645000,374.992500 1365.395000,408.367500 1298.645000,441.742500 1231.895000,408.367500"/>
<polygon id="C092" data-cell-id="92" data-x="3" data-y="-3" data-parity="light" points="1365.395000,408.367500 1432.145000,441.742500 1365.395000,475.117500 1298.645000,441.742500"/>
<polygon id="C093" data-cell-id="93" data-x="4" data-y="-3" data-parity="dark" points="1432.145000,441.742500 1498.895000,475.117500 1432.145000,508.492500 1365.395000,475.117500"/>
<polygon id="C094" data-cell-id="94" data-x="5" data-y="-3" data-parity="light" points="1498.895000,475.117500 1565.645000,508.492500 1498.895000,541.867500 1432.145000,508.492500"/>
<polygon id="C095" data-cell-id="95" data-x="6" data-y="-3" data-parity="dark" points="1565.645000,508.492500 1632.395000,541.867500 1565.645000,575.242500 1498.895000,541.867500"/>
<polygon id="C096" data-cell-id="96" data-x="7" data-y="-3" data-parity="light" points="1632.395000,541.867500 1699.145000,575.242500 1632.395000,608.617500 1565.645000,575.242500"/>
<polygon id="C097" data-cell-id="97" data-x="8" data-y="-3" data-parity="dark" points="1699.145000,575.242500 1765.895000,608.617500 1699.145000,641.992500 1632.395000,608.617500"/>
<polygon id="C098" data-cell-id="98" data-x="9" data-y="-3" data-parity="light" points="1765.895000,608.617500 1832.645000,641.992500 1765.895000,675.367500 1699.145000,641.992500"/>
<polygon id="C099" data-cell-id="99" data-x="10" data-y="-3" data-parity="dark" points="1832.645000,641.992500 1899.395000,675.367500 1832.645000,708.742500 1765.895000,675.367500"/>
<polygon id="C100" data-cell-id="100" data-x="-9" data-y="-2" data-parity="dark" points="497.645000,41.242500 564.395000,74.617500 497.645000,107.992500 430.895000,74.617500"/>
<polygon id="C101" data-cell-id="101" data-x="-8" data-y="-2" data-parity="light" points="564.395000,74.617500 631.145000,107.992500 564.395000,141.367500 497.645000,107.992500"/>
<polygon id="C102" data-cell-id="102" data-x="-7" data-y="-2" data-parity="dark" points="631.145000,107.992500 697.895000,141.367500 631.145000,174.742500 564.395000,141.367500"/>
<polygon id="C103" data-cell-id="103" data-x="-6" data-y="-2" data-parity="light" points="697.895000,141.367500 764.645000,174.742500 697.895000,208.117500 631.145000,174.742500"/>
<polygon id="C104" data-cell-id="104" data-x="-5" data-y="-2" data-parity="dark" points="764.645000,174.742500 831.395000,208.117500 764.645000,241.492500 697.895000,208.117500"/>
<polygon id="C105" data-cell-id="105" data-x="-4" data-y="-2" data-parity="light" points="831.395000,208.117500 898.145000,241.492500 831.395000,274.867500 764.645000,241.492500"/>
<polygon id="C106" data-cell-id="106" data-x="-3" data-y="-2" data-parity="dark" points="898.145000,241.492500 964.895000,274.867500 898.145000,308.242500 831.395000,274.867500"/>
<polygon id="C107" data-cell-id="107" data-x="-2" data-y="-2" data-parity="light" points="964.895000,274.867500 1031.645000,308.242500 964.895000,341.617500 898.145000,308.242500"/>
<polygon id="C108" data-cell-id="108" data-x="-1" data-y="-2" data-parity="dark" points="1031.645000,308.242500 1098.395000,341.617500 1031.645000,374.992500 964.895000,341.617500"/>
<polygon id="C109" data-cell-id="109" data-x="0" data-y="-2" data-parity="light" points="1098.395000,341.617500 1165.145000,374.992500 1098.395000,408.367500 1031.645000,374.992500"/>
<polygon id="C110" data-cell-id="110" data-x="1" data-y="-2" data-parity="dark" points="1165.145000,374.992500 1231.895000,408.367500 1165.145000,441.742500 1098.395000,408.367500"/>
<polygon id="C111" data-cell-id="111" data-x="2" data-y="-2" data-parity="light" points="1231.895000,408.367500 1298.645000,441.742500 1231.895000,475.117500 1165.145000,441.742500"/>
<polygon id="C112" data-cell-id="112" data-x="3" data-y="-2" data-parity="dark" points="1298.645000,441.742500 1365.395000,475.117500 1298.645000,508.492500 1231.895000,475.117500"/>
<polygon id="C113" data-cell-id="113" data-x="4" data-y="-2" data-parity="light" points="1365.395000,475.117500 1432.145000,508.492500 1365.395000,541.867500 1298.645000,508.492500"/>
<polygon id="C114" data-cell-id="114" data-x="5" data-y="-2" data-parity="dark" points="1432.145000,508.492500 1498.895000,541.867500 1432.145000,575.242500 1365.395000,541.867500"/>
<polygon id="C115" data-cell-id="115" data-x="6" data-y="-2" data-parity="light" points="1498.895000,541.867500 1565.645000,575.242500 1498.895000,608.617500 1432.145000,575.242500"/>
<polygon id="C116" data-cell-id="116" data-x="7" data-y="-2" data-parity="dark" points="1565.645000,575.242500 1632.395000,608.617500 1565.645000,641.992500 1498.895000,608.617500"/>
<polygon id="C117" data-cell-id="117" data-x="8" data-y="-2" data-parity="light" points="1632.395000,608.617500 1699.145000,641.992500 1632.395000,675.367500 1565.645000,641.992500"/>
<polygon id="C118" data-cell-id="118" data-x="9" data-y="-2" data-parity="dark" points="1699.145000,641.992500 1765.895000,675.367500 1699.145000,708.742500 1632.395000,675.367500"/>
<polygon id="C119" data-cell-id="119" data-x="10" data-y="-2" data-parity="light" points="1765.895000,675.367500 1832.645000,708.742500 1765.895000,742.117500 1699.145000,708.742500"/>
<polygon id="C120" data-cell-id="120" data-x="11" data-y="-2" data-parity="dark" points="1832.645000,708.742500 1899.395000,742.117500 1832.645000,775.492500 1765.895000,742.117500"/>
<polygon id="C121" data-cell-id="121" data-x="-10" data-y="-1" data-parity="dark" points="364.145000,41.242500 430.895000,74.617500 364.145000,107.992500 297.395000,74.617500"/>
<polygon id="C122" data-cell-id="122" data-x="-9" data-y="-1" data-parity="light" points="430.895000,74.617500 497.645000,107.992500 430.895000,141.367500 364.145000,107.992500"/>
<polygon id="C123" data-cell-id="123" data-x="-8" data-y="-1" data-parity="dark" points="497.645000,107.992500 564.395000,141.367500 497.645000,174.742500 430.895000,141.367500"/>
<polygon id="C124" data-cell-id="124" data-x="-7" data-y="-1" data-parity="light" points="564.395000,141.367500 631.145000,174.742500 564.395000,208.117500 497.645000,174.742500"/>
<polygon id="C125" data-cell-id="125" data-x="-6" data-y="-1" data-parity="dark" points="631.145000,174.742500 697.895000,208.117500 631.145000,241.492500 564.395000,208.117500"/>
<polygon id="C126" data-cell-id="126" data-x="-5" data-y="-1" data-parity="light" points="697.895000,208.117500 764.645000,241.492500 697.895000,274.867500 631.145000,241.492500"/>
<polygon id="C127" data-cell-id="127" data-x="-4" data-y="-1" data-parity="dark" points="764.645000,241.492500 831.395000,274.867500 764.645000,308.242500 697.895000,274.867500"/>
<polygon id="C128" data-cell-id="128" data-x="-3" data-y="-1" data-parity="light" points="831.395000,274.867500 898.145000,308.242500 831.395000,341.617500 764.645000,308.242500"/>
<polygon id="C129" data-cell-id="129" data-x="-2" data-y="-1" data-parity="dark" points="898.145000,308.242500 964.895000,341.617500 898.145000,374.992500 831.395000,341.617500"/>
<polygon id="C130" data-cell-id="130" data-x="-1" data-y="-1" data-parity="light" points="964.895000,341.617500 1031.645000,374.992500 964.895000,408.367500 898.145000,374.992500"/>
<polygon id="C131" data-cell-id="131" data-x="0" data-y="-1" data-parity="dark" points="1031.645000,374.992500 1098.395000,408.367500 1031.645000,441.742500 964.895000,408.367500"/>
<polygon id="C132" data-cell-id="132" data-x="1" data-y="-1" data-parity="light" points="1098.395000,408.367500 1165.145000,441.742500 1098.395000,475.117500 1031.645000,441.742500"/>
<polygon id="C133" data-cell-id="133" data-x="2" data-y="-1" data-parity="dark" points="1165.145000,441.742500 1231.895000,475.117500 1165.145000,508.492500 1098.395000,475.117500"/>
<polygon id="C134" data-cell-id="134" data-x="3" data-y="-1" data-parity="light" points="1231.895000,475.117500 1298.645000,508.492500 1231.895000,541.867500 1165.145000,508.492500"/>
<polygon id="C135" data-cell-id="135" data-x="4" data-y="-1" data-parity="dark" points="1298.645000,508.492500 1365.395000,541.867500 1298.645000,575.242500 1231.895000,541.867500"/>
<polygon id="C136" data-cell-id="136" data-x="5" data-y="-1" data-parity="light" points="1365.395000,541.867500 1432.145000,575.242500 1365.395000,608.617500 1298.645000,575.242500"/>
<polygon id="C137" data-cell-id="137" data-x="6" data-y="-1" data-parity="dark" points="1432.145000,575.242500 1498.895000,608.617500 1432.145000,641.992500 1365.395000,608.617500"/>
<polygon id="C138" data-cell-id="138" data-x="7" data-y="-1" data-parity="light" points="1498.895000,608.617500 1565.645000,641.992500 1498.895000,675.367500 1432.145000,641.992500"/>
<polygon id="C139" data-cell-id="139" data-x="8" data-y="-1" data-parity="dark" points="1565.645000,641.992500 1632.395000,675.367500 1565.645000,708.742500 1498.895000,675.367500"/>
<polygon id="C140" data-cell-id="140" data-x="9" data-y="-1" data-parity="light" points="1632.395000,675.367500 1699.145000,708.742500 1632.395000,742.117500 1565.645000,708.742500"/>
<polygon id="C141" data-cell-id="141" data-x="10" data-y="-1" data-parity="dark" points="1699.145000,708.742500 1765.895000,742.117500 1699.145000,775.492500 1632.395000,742.117500"/>
<polygon id="C142" data-cell-id="142" data-x="11" data-y="-1" data-parity="light" points="1765.895000,742.117500 1832.645000,775.492500 1765.895000,808.867500 1699.145000,775.492500"/>
<polygon id="C143" data-cell-id="143" data-x="12" data-y="-1" data-parity="dark" points="1832.645000,775.492500 1899.395000,808.867500 1832.645000,842.242500 1765.895000,808.867500"/>
<polygon id="C144" data-cell-id="144" data-x="-11" data-y="0" data-parity="dark" points="230.645000,41.242500 297.395000,74.617500 230.645000,107.992500 163.895000,74.617500"/>
<polygon id="C145" data-cell-id="145" data-x="-10" data-y="0" data-parity="light" points="297.395000,74.617500 364.145000,107.992500 297.395000,141.367500 230.645000,107.992500"/>
<polygon id="C146" data-cell-id="146" data-x="-9" data-y="0" data-parity="dark" points="364.145000,107.992500 430.895000,141.367500 364.145000,174.742500 297.395000,141.367500"/>
<polygon id="C147" data-cell-id="147" data-x="-8" data-y="0" data-parity="light" points="430.895000,141.367500 497.645000,174.742500 430.895000,208.117500 364.145000,174.742500"/>
<polygon id="C148" data-cell-id="148" data-x="-7" data-y="0" data-parity="dark" points="497.645000,174.742500 564.395000,208.117500 497.645000,241.492500 430.895000,208.117500"/>
<polygon id="C149" data-cell-id="149" data-x="-6" data-y="0" data-parity="light" points="564.395000,208.117500 631.145000,241.492500 564.395000,274.867500 497.645000,241.492500"/>
<polygon id="C150" data-cell-id="150" data-x="-5" data-y="0" data-parity="dark" points="631.145000,241.492500 697.895000,274.867500 631.145000,308.242500 564.395000,274.867500"/>
<polygon id="C151" data-cell-id="151" data-x="-4" data-y="0" data-parity="light" points="697.895000,274.867500 764.645000,308.242500 697.895000,341.617500 631.145000,308.242500"/>
<polygon id="C152" data-cell-id="152" data-x="-3" data-y="0" data-parity="dark" points="764.645000,308.242500 831.395000,341.617500 764.645000,374.992500 697.895000,341.617500"/>
<polygon id="C153" data-cell-id="153" data-x="-2" data-y="0" data-parity="light" points="831.395000,341.617500 898.145000,374.992500 831.395000,408.367500 764.645000,374.992500"/>
<polygon id="C154" data-cell-id="154" data-x="-1" data-y="0" data-parity="dark" points="898.145000,374.992500 964.895000,408.367500 898.145000,441.742500 831.395000,408.367500"/>
<polygon id="C155" data-cell-id="155" data-x="0" data-y="0" data-parity="light" points="964.895000,408.367500 1031.645000,441.742500 964.895000,475.117500 898.145000,441.742500"/>
<polygon id="C156" data-cell-id="156" data-x="1" data-y="0" data-parity="dark" points="1031.645000,441.742500 1098.395000,475.117500 1031.645000,508.492500 964.895000,475.117500"/>
<polygon id="C157" data-cell-id="157" data-x="2" data-y="0" data-parity="light" points="1098.395000,475.117500 1165.145000,508.492500 1098.395000,541.867500 1031.645000,508.492500"/>
<polygon id="C158" data-cell-id="158" data-x="3" data-y="0" data-parity="dark" points="1165.145000,508.492500 1231.895000,541.867500 1165.145000,575.242500 1098.395000,541.867500"/>
<polygon id="C159" data-cell-id="159" data-x="4" data-y="0" data-parity="light" points="1231.895000,541.867500 1298.645000,575.242500 1231.895000,608.617500 1165.145000,575.242500"/>
<polygon id="C160" data-cell-id="160" data-x="5" data-y="0" data-parity="dark" points="1298.645000,575.242500 1365.395000,608.617500 1298.645000,641.992500 1231.895000,608.617500"/>
<polygon id="C161" data-cell-id="161" data-x="6" data-y="0" data-parity="light" points="1365.395000,608.617500 1432.145000,641.992500 1365.395000,675.367500 1298.645000,641.992500"/>
<polygon id="C162" data-cell-id="162" data-x="7" data-y="0" data-parity="dark" points="1432.145000,641.992500 1498.895000,675.367500 1432.145000,708.742500 1365.395000,675.367500"/>
<polygon id="C163" data-cell-id="163" data-x="8" data-y="0" data-parity="light" points="1498.895000,675.367500 1565.645000,708.742500 1498.895000,742.117500 1432.145000,708.742500"/>
<polygon id="C164" data-cell-id="164" data-x="9" data-y="0" data-parity="dark" points="1565.645000,708.742500 1632.395000,742.117500 1565.645000,775.492500 1498.895000,742.117500"/>
<polygon id="C165" data-cell-id="165" data-x="10" data-y="0" data-parity="light" points="1632.395000,742.117500 1699.145000,775.492500 1632.395000,808.867500 1565.645000,775.492500"/>
<polygon id="C166" data-cell-id="166" data-x="11" data-y="0" data-parity="dark" points="1699.145000,775.492500 1765.895000,808.867500 1699.145000,842.242500 1632.395000,808.867500"/>
<polygon id="C167" data-cell-id="167" data-x="12" data-y="0" data-parity="light" points="1765.895000,808.867500 1832.645000,842.242500 1765.895000,875.617500 1699.145000,842.242500"/>
<polygon id="C168" data-cell-id="168" data-x="13" data-y="0" data-parity="dark" points="1832.645000,842.242500 1899.395000,875.617500 1832.645000,908.992500 1765.895000,875.617500"/>
<polygon id="C169" data-cell-id="169" data-x="-12" data-y="1" data-parity="dark" points="97.145000,41.242500 163.895000,74.617500 97.145000,107.992500 30.395000,74.617500"/>
<polygon id="C170" data-cell-id="170" data-x="-11" data-y="1" data-parity="light" points="163.895000,74.617500 230.645000,107.992500 163.895000,141.367500 97.145000,107.992500"/>
<polygon id="C171" data-cell-id="171" data-x="-10" data-y="1" data-parity="dark" points="230.645000,107.992500 297.395000,141.367500 230.645000,174.742500 163.895000,141.367500"/>
<polygon id="C172" data-cell-id="172" data-x="-9" data-y="1" data-parity="light" points="297.395000,141.367500 364.145000,174.742500 297.395000,208.117500 230.645000,174.742500"/>
<polygon id="C173" data-cell-id="173" data-x="-8" data-y="1" data-parity="dark" points="364.145000,174.742500 430.895000,208.117500 364.145000,241.492500 297.395000,208.117500"/>
<polygon id="C174" data-cell-id="174" data-x="-7" data-y="1" data-parity="light" points="430.895000,208.117500 497.645000,241.492500 430.895000,274.867500 364.145000,241.492500"/>
<polygon id="C175" data-cell-id="175" data-x="-6" data-y="1" data-parity="dark" points="497.645000,241.492500 564.395000,274.867500 497.645000,308.242500 430.895000,274.867500"/>
<polygon id="C176" data-cell-id="176" data-x="-5" data-y="1" data-parity="light" points="564.395000,274.867500 631.145000,308.242500 564.395000,341.617500 497.645000,308.242500"/>
<polygon id="C177" data-cell-id="177" data-x="-4" data-y="1" data-parity="dark" points="631.145000,308.242500 697.895000,341.617500 631.145000,374.992500 564.395000,341.617500"/>
<polygon id="C178" data-cell-id="178" data-x="-3" data-y="1" data-parity="light" points="697.895000,341.617500 764.645000,374.992500 697.895000,408.367500 631.145000,374.992500"/>
<polygon id="C179" data-cell-id="179" data-x="-2" data-y="1" data-parity="dark" points="764.645000,374.992500 831.395000,408.367500 764.645000,441.742500 697.895000,408.367500"/>
<polygon id="C180" data-cell-id="180" data-x="-1" data-y="1" data-parity="light" points="831.395000,408.367500 898.145000,441.742500 831.395000,475.117500 764.645000,441.742500"/>
<polygon id="C181" data-cell-id="181" data-x="0" data-y="1" data-parity="dark" points="898.145000,441.742500 964.895000,475.117500 898.145000,508.492500 831.395000,475.117500"/>
<polygon id="C182" data-cell-id="182" data-x="1" data-y="1" data-parity="light" points="964.895000,475.117500 1031.645000,508.492500 964.895000,541.867500 898.145000,508.492500"/>
<polygon id="C183" data-cell-id="183" data-x="2" data-y="1" data-parity="dark" points="1031.645000,508.492500 1098.395000,541.867500 1031.645000,575.242500 964.895000,541.867500"/>
<polygon id="C184" data-cell-id="184" data-x="3" data-y="1" data-parity="light" points="1098.395000,541.867500 1165.145000,575.242500 1098.395000,608.617500 1031.645000,575.242500"/>
<polygon id="C185" data-cell-id="185" data-x="4" data-y="1" data-parity="dark" points="1165.145000,575.242500 1231.895000,608.617500 1165.145000,641.992500 1098.395000,608.617500"/>
<polygon id="C186" data-cell-id="186" data-x="5" data-y="1" data-parity="light" points="1231.895000,608.617500 1298.645000,641.992500 1231.895000,675.367500 1165.145000,641.992500"/>
<polygon id="C187" data-cell-id="187" data-x="6" data-y="1" data-parity="dark" points="1298.645000,641.992500 1365.395000,675.367500 1298.645000,708.742500 1231.895000,675.367500"/>
<polygon id="C188" data-cell-id="188" data-x="7" data-y="1" data-parity="light" points="1365.395000,675.367500 1432.145000,708.742500 1365.395000,742.117500 1298.645000,708.742500"/>
<polygon id="C189" data-cell-id="189" data-x="8" data-y="1" data-parity="dark" points="1432.145000,708.742500 1498.895000,742.117500 1432.145000,775.492500 1365.395000,742.117500"/>
<polygon id="C190" data-cell-id="190" data-x="9" data-y="1" data-parity="light" points="1498.895000,742.117500 1565.645000,775.492500 1498.895000,808.867500 1432.145000,775.492500"/>
<polygon id="C191" data-cell-id="191" data-x="10" data-y="1" data-parity="dark" points="1565.645000,775.492500 1632.395000,808.867500 1565.645000,842.242500 1498.895000,808.867500"/>
<polygon id="C192" data-cell-id="192" data-x="11" data-y="1" data-parity="light" points="1632.395000,808.867500 1699.145000,842.242500 1632.395000,875.617500 1565.645000,842.242500"/>
<polygon id="C193" data-cell-id="193" data-x="12" data-y="1" data-parity="dark" points="1699.145000,842.242500 1765.895000,875.617500 1699.145000,908.992500 1632.395000,875.617500"/>
<polygon id="C194" data-cell-id="194" data-x="-11" data-y="2" data-parity="dark" points="97.145000,107.992500 163.895000,141.367500 97.145000,174.742500 30.395000,141.367500"/>
<polygon id="C195" data-cell-id="195" data-x="-10" data-y="2" data-parity="light" points="163.895000,141.367500 230.645000,174.742500 163.895000,208.117500 97.145000,174.742500"/>
<polygon id="C196" data-cell-id="196" data-x="-9" data-y="2" data-parity="dark" points="230.645000,174.742500 297.395000,208.117500 230.645000,241.492500 163.895000,208.117500"/>
<polygon id="C197" data-cell-id="197" data-x="-8" data-y="2" data-parity="light" points="297.395000,208.117500 364.145000,241.492500 297.395000,274.867500 230.645000,241.492500"/>
<polygon id="C198" data-cell-id="198" data-x="-7" data-y="2" data-parity="dark" points="364.145000,241.492500 430.895000,274.867500 364.145000,308.242500 297.395000,274.867500"/>
<polygon id="C199" data-cell-id="199" data-x="-6" data-y="2" data-parity="light" points="430.895000,274.867500 497.645000,308.242500 430.895000,341.617500 364.145000,308.242500"/>
<polygon id="C200" data-cell-id="200" data-x="-5" data-y="2" data-parity="dark" points="497.645000,308.242500 564.395000,341.617500 497.645000,374.992500 430.895000,341.617500"/>
<polygon id="C201" data-cell-id="201" data-x="-4" data-y="2" data-parity="light" points="564.395000,341.617500 631.145000,374.992500 564.395000,408.367500 497.645000,374.992500"/>
<polygon id="C202" data-cell-id="202" data-x="-3" data-y="2" data-parity="dark" points="631.145000,374.992500 697.895000,408.367500 631.145000,441.742500 564.395000,408.367500"/>
<polygon id="C203" data-cell-id="203" data-x="-2" data-y="2" data-parity="light" points="697.895000,408.367500 764.645000,441.742500 697.895000,475.117500 631.145000,441.742500"/>
<polygon id="C204" data-cell-id="204" data-x="-1" data-y="2" data-parity="dark" points="764.645000,441.742500 831.395000,475.117500 764.645000,508.492500 697.895000,475.117500"/>
<polygon id="C205" data-cell-id="205" data-x="0" data-y="2" data-parity="light" points="831.395000,475.117500 898.145000,508.492500 831.395000,541.867500 764.645000,508.492500"/>
<polygon id="C206" data-cell-id="206" data-x="1" data-y="2" data-parity="dark" points="898.145000,508.492500 964.895000,541.867500 898.145000,575.242500 831.395000,541.867500"/>
<polygon id="C207" data-cell-id="207" data-x="2" data-y="2" data-parity="light" points="964.895000,541.867500 1031.645000,575.242500 964.895000,608.617500 898.145000,575.242500"/>
<polygon id="C208" data-cell-id="208" data-x="3" data-y="2" data-parity="dark" points="1031.645000,575.242500 1098.395000,608.617500 1031.645000,641.992500 964.895000,608.617500"/>
<polygon id="C209" data-cell-id="209" data-x="4" data-y="2" data-parity="light" points="1098.395000,608.617500 1165.145000,641.992500 1098.395000,675.367500 1031.645000,641.992500"/>
<polygon id="C210" data-cell-id="210" data-x="5" data-y="2" data-parity="dark" points="1165.145000,641.992500 1231.895000,675.367500 1165.145000,708.742500 1098.395000,675.367500"/>
<polygon id="C211" data-cell-id="211" data-x="6" data-y="2" data-parity="light" points="1231.895000,675.367500 1298.645000,708.742500 1231.895000,742.117500 1165.145000,708.742500"/>
<polygon id="C212" data-cell-id="212" data-x="7" data-y="2" data-parity="dark" points="1298.645000,708.742500 1365.395000,742.117500 1298.645000,775.492500 1231.895000,742.117500"/>
<polygon id="C213" data-cell-id="213" data-x="8" data-y="2" data-parity="light" points="1365.395000,742.117500 1432.145000,775.492500 1365.395000,808.867500 1298.645000,775.492500"/>
<polygon id="C214" data-cell-id="214" data-x="9" data-y="2" data-parity="dark" points="1432.145000,775.492500 1498.895000,808.867500 1432.145000,842.242500 1365.395000,808.867500"/>
<polygon id="C215" data-cell-id="215" data-x="10" data-y="2" data-parity="light" points="1498.895000,808.867500 1565.645000,842.242500 1498.895000,875.617500 1432.145000,842.242500"/>
<polygon id="C216" data-cell-id="216" data-x="11" data-y="2" data-parity="dark" points="1565.645000,842.242500 1632.395000,875.617500 1565.645000,908.992500 1498.895000,875.617500"/>
<polygon id="C217" data-cell-id="217" data-x="-10" data-y="3" data-parity="dark" points="97.145000,174.742500 163.895000,208.117500 97.145000,241.492500 30.395000,208.117500"/>
<polygon id="C218" data-cell-id="218" data-x="-9" data-y="3" data-parity="light" points="163.895000,208.117500 230.645000,241.492500 163.895000,274.867500 97.145000,241.492500"/>
<polygon id="C219" data-cell-id="219" data-x="-8" data-y="3" data-parity="dark" points="230.645000,241.492500 297.395000,274.867500 230.645000,308.242500 163.895000,274.867500"/>
<polygon id="C220" data-cell-id="220" data-x="-7" data-y="3" data-parity="light" points="297.395000,274.867500 364.145000,308.242500 297.395000,341.617500 230.645000,308.242500"/>
<polygon id="C221" data-cell-id="221" data-x="-6" data-y="3" data-parity="dark" points="364.145000,308.242500 430.895000,341.617500 364.145000,374.992500 297.395000,341.617500"/>
<polygon id="C222" data-cell-id="222" data-x="-5" data-y="3" data-parity="light" points="430.895000,341.617500 497.645000,374.992500 430.895000,408.367500 364.145000,374.992500"/>
<polygon id="C223" data-cell-id="223" data-x="-4" data-y="3" data-parity="dark" points="497.645000,374.992500 564.395000,408.367500 497.645000,441.742500 430.895000,408.367500"/>
<polygon id="C224" data-cell-id="224" data-x="-3" data-y="3" data-parity="light" points="564.395000,408.367500 631.145000,441.742500 564.395000,475.117500 497.645000,441.742500"/>
<polygon id="C225" data-cell-id="225" data-x="-2" data-y="3" data-parity="dark" points="631.145000,441.742500 697.895000,475.117500 631.145000,508.492500 564.395000,475.117500"/>
<polygon id="C226" data-cell-id="226" data-x="-1" data-y="3" data-parity="light" points="697.895000,475.117500 764.645000,508.492500 697.895000,541.867500 631.145000,508.492500"/>
<polygon id="C227" data-cell-id="227" data-x="0" data-y="3" data-parity="dark" points="764.645000,508.492500 831.395000,541.867500 764.645000,575.242500 697.895000,541.867500"/>
<polygon id="C228" data-cell-id="228" data-x="1" data-y="3" data-parity="light" points="831.395000,541.867500 898.145000,575.242500 831.395000,608.617500 764.645000,575.242500"/>
<polygon id="C229" data-cell-id="229" data-x="2" data-y="3" data-parity="dark" points="898.145000,575.242500 964.895000,608.617500 898.145000,641.992500 831.395000,608.617500"/>
<polygon id="C230" data-cell-id="230" data-x="3" data-y="3" data-parity="light" points="964.895000,608.617500 1031.645000,641.992500 964.895000,675.367500 898.145000,641.992500"/>
<polygon id="C231" data-cell-id="231" data-x="4" data-y="3" data-parity="dark" points="1031.645000,641.992500 1098.395000,675.367500 1031.645000,708.742500 964.895000,675.367500"/>
<polygon id="C232" data-cell-id="232" data-x="5" data-y="3" data-parity="light" points="1098.395000,675.367500 1165.145000,708.742500 1098.395000,742.117500 1031.645000,708.742500"/>
<polygon id="C233" data-cell-id="233" data-x="6" data-y="3" data-parity="dark" points="1165.145000,708.742500 1231.895000,742.117500 1165.145000,775.492500 1098.395000,742.117500"/>
<polygon id="C234" data-cell-id="234" data-x="7" data-y="3" data-parity="light" points="1231.895000,742.117500 1298.645000,775.492500 1231.895000,808.867500 1165.145000,775.492500"/>
<polygon id="C235" data-cell-id="235" data-x="8" data-y="3" data-parity="dark" points="1298.645000,775.492500 1365.395000,808.867500 1298.645000,842.242500 1231.895000,808.867500"/>
<polygon id="C236" data-cell-id="236" data-x="9" data-y="3" data-parity="light" points="1365.395000,808.867500 1432.145000,842.242500 1365.395000,875.617500 1298.645000,842.242500"/>
<polygon id="C237" data-cell-id="237" data-x="10" data-y="3" data-parity="dark" points="1432.145000,842.242500 1498.895000,875.617500 1432.145000,908.992500 1365.395000,875.617500"/>
<polygon id="C238" data-cell-id="238" data-x="-9" data-y="4" data-parity="dark" points="97.145000,241.492500 163.895000,274.867500 97.145000,308.242500 30.395000,274.867500"/>
<polygon id="C239" data-cell-id="239" data-x="-8" data-y="4" data-parity="light" points="163.895000,274.867500 230.645000,308.242500 163.895000,341.617500 97.145000,308.242500"/>
<polygon id="C240" data-cell-id="240" data-x="-7" data-y="4" data-parity="dark" points="230.645000,308.242500 297.395000,341.617500 230.645000,374.992500 163.895000,341.617500"/>
<polygon id="C241" data-cell-id="241" data-x="-6" data-y="4" data-parity="light" points="297.395000,341.617500 364.145000,374.992500 297.395000,408.367500 230.645000,374.992500"/>
<polygon id="C242" data-cell-id="242" data-x="-5" data-y="4" data-parity="dark" points="364.145000,374.992500 430.895000,408.367500 364.145000,441.742500 297.395000,408.367500"/>
<polygon id="C243" data-cell-id="243" data-x="-4" data-y="4" data-parity="light" points="430.895000,408.367500 497.645000,441.742500 430.895000,475.117500 364.145000,441.742500"/>
<polygon id="C244" data-cell-id="244" data-x="-3" data-y="4" data-parity="dark" points="497.645000,441.742500 564.395000,475.117500 497.645000,508.492500 430.895000,475.117500"/>
<polygon id="C245" data-cell-id="245" data-x="-2" data-y="4" data-parity="light" points="564.395000,475.117500 631.145000,508.492500 564.395000,541.867500 497.645000,508.492500"/>
<polygon id="C246" data-cell-id="246" data-x="-1" data-y="4" data-parity="dark" points="631.145000,508.492500 697.895000,541.867500 631.145000,575.242500 564.395000,541.867500"/>
<polygon id="C247" data-cell-id="247" data-x="0" data-y="4" data-parity="light" points="697.895000,541.867500 764.645000,575.242500 697.895000,608.617500 631.145000,575.242500"/>
<polygon id="C248" data-cell-id="248" data-x="1" data-y="4" data-parity="dark" points="764.645000,575.242500 831.395000,608.617500 764.645000,641.992500 697.895000,608.617500"/>
<polygon id="C249" data-cell-id="249" data-x="2" data-y="4" data-parity="light" points="831.395000,608.617500 898.145000,641.992500 831.395000,675.367500 764.645000,641.992500"/>
<polygon id="C250" data-cell-id="250" data-x="3" data-y="4" data-parity="dark" points="898.145000,641.992500 964.895000,675.367500 898.145000,708.742500 831.395000,675.367500"/>
<polygon id="C251" data-cell-id="251" data-x="4" data-y="4" data-parity="light" points="964.895000,675.367500 1031.645000,708.742500 964.895000,742.117500 898.145000,708.742500"/>
<polygon id="C252" data-cell-id="252" data-x="5" data-y="4" data-parity="dark" points="1031.645000,708.742500 1098.395000,742.117500 1031.645000,775.492500 964.895000,742.117500"/>
<polygon id="C253" data-cell-id="253" data-x="6" data-y="4" data-parity="light" points="1098.395000,742.117500 1165.145000,775.492500 1098.395000,808.867500 1031.645000,775.492500"/>
<polygon id="C254" data-cell-id="254" data-x="7" data-y="4" data-parity="dark" points="1165.145000,775.492500 1231.895000,808.867500 1165.145000,842.242500 1098.395000,808.867500"/>
<polygon id="C255" data-cell-id="255" data-x="8" data-y="4" data-parity="light" points="1231.895000,808.867500 1298.645000,842.242500 1231.895000,875.617500 1165.145000,842.242500"/>
<polygon id="C256" data-cell-id="256" data-x="9" data-y="4" data-parity="dark" points="1298.645000,842.242500 1365.395000,875.617500 1298.645000,908.992500 1231.895000,875.617500"/>
<polygon id="C257" data-cell-id="257" data-x="-8" data-y="5" data-parity="dark" points="97.145000,308.242500 163.895000,341.617500 97.145000,374.992500 30.395000,341.617500"/>
<polygon id="C258" data-cell-id="258" data-x="-7" data-y="5" data-parity="light" points="163.895000,341.617500 230.645000,374.992500 163.895000,408.367500 97.145000,374.992500"/>
<polygon id="C259" data-cell-id="259" data-x="-6" data-y="5" data-parity="dark" points="230.645000,374.992500 297.395000,408.367500 230.645000,441.742500 163.895000,408.367500"/>
<polygon id="C260" data-cell-id="260" data-x="-5" data-y="5" data-parity="light" points="297.395000,408.367500 364.145000,441.742500 297.395000,475.117500 230.645000,441.742500"/>
<polygon id="C261" data-cell-id="261" data-x="-4" data-y="5" data-parity="dark" points="364.145000,441.742500 430.895000,475.117500 364.145000,508.492500 297.395000,475.117500"/>
<polygon id="C262" data-cell-id="262" data-x="-3" data-y="5" data-parity="light" points="430.895000,475.117500 497.645000,508.492500 430.895000,541.867500 364.145000,508.492500"/>
<polygon id="C263" data-cell-id="263" data-x="-2" data-y="5" data-parity="dark" points="497.645000,508.492500 564.395000,541.867500 497.645000,575.242500 430.895000,541.867500"/>
<polygon id="C264" data-cell-id="264" data-x="-1" data-y="5" data-parity="light" points="564.395000,541.867500 631.145000,575.242500 564.395000,608.617500 497.645000,575.242500"/>
<polygon id="C265" data-cell-id="265" data-x="0" data-y="5" data-parity="dark" points="631.145000,575.242500 697.895000,608.617500 631.145000,641.992500 564.395000,608.617500"/>
<polygon id="C266" data-cell-id="266" data-x="1" data-y="5" data-parity="light" points="697.895000,608.617500 764.645000,641.992500 697.895000,675.367500 631.145000,641.992500"/>
<polygon id="C267" data-cell-id="267" data-x="2" data-y="5" data-parity="dark" points="764.645000,641.992500 831.395000,675.367500 764.645000,708.742500 697.895000,675.367500"/>
<polygon id="C268" data-cell-id="268" data-x="3" data-y="5" data-parity="light" points="831.395000,675.367500 898.145000,708.742500 831.395000,742.117500 764.645000,708.742500"/>
<polygon id="C269" data-cell-id="269" data-x="4" data-y="5" data-parity="dark" points="898.145000,708.742500 964.895000,742.117500 898.145000,775.492500 831.395000,742.117500"/>
<polygon id="C270" data-cell-id="270" data-x="5" data-y="5" data-parity="light" points="964.895000,742.117500 1031.645000,775.492500 964.895000,808.867500 898.145000,775.492500"/>
<polygon id="C271" data-cell-id="271" data-x="6" data-y="5" data-parity="dark" points="1031.645000,775.492500 1098.395000,808.867500 1031.645000,842.242500 964.895000,808.867500"/>
<polygon id="C272" data-cell-id="272" data-x="7" data-y="5" data-parity="light" points="1098.395000,808.867500 1165.145000,842.242500 1098.395000,875.617500 1031.645000,842.242500"/>
<polygon id="C273" data-cell-id="273" data-x="8" data-y="5" data-parity="dark" points="1165.145000,842.242500 1231.895000,875.617500 1165.145000,908.992500 1098.395000,875.617500"/>
<polygon id="C274" data-cell-id="274" data-x="-7" data-y="6" data-parity="dark" points="97.145000,374.992500 163.895000,408.367500 97.145000,441.742500 30.395000,408.367500"/>
<polygon id="C275" data-cell-id="275" data-x="-6" data-y="6" data-parity="light" points="163.895000,408.367500 230.645000,441.742500 163.895000,475.117500 97.145000,441.742500"/>
<polygon id="C276" data-cell-id="276" data-x="-5" data-y="6" data-parity="dark" points="230.645000,441.742500 297.395000,475.117500 230.645000,508.492500 163.895000,475.117500"/>
<polygon id="C277" data-cell-id="277" data-x="-4" data-y="6" data-parity="light" points="297.395000,475.117500 364.145000,508.492500 297.395000,541.867500 230.645000,508.492500"/>
<polygon id="C278" data-cell-id="278" data-x="-3" data-y="6" data-parity="dark" points="364.145000,508.492500 430.895000,541.867500 364.145000,575.242500 297.395000,541.867500"/>
<polygon id="C279" data-cell-id="279" data-x="-2" data-y="6" data-parity="light" points="430.895000,541.867500 497.645000,575.242500 430.895000,608.617500 364.145000,575.242500"/>
<polygon id="C280" data-cell-id="280" data-x="-1" data-y="6" data-parity="dark" points="497.645000,575.242500 564.395000,608.617500 497.645000,641.992500 430.895000,608.617500"/>
<polygon id="C281" data-cell-id="281" data-x="0" data-y="6" data-parity="light" points="564.395000,608.617500 631.145000,641.992500 564.395000,675.367500 497.645000,641.992500"/>
<polygon id="C282" data-cell-id="282" data-x="1" data-y="6" data-parity="dark" points="631.145000,641.992500 697.895000,675.367500 631.145000,708.742500 564.395000,675.367500"/>
<polygon id="C283" data-cell-id="283" data-x="2" data-y="6" data-parity="light" points="697.895000,675.367500 764.645000,708.742500 697.895000,742.117500 631.145000,708.742500"/>
<polygon id="C284" data-cell-id="284" data-x="3" data-y="6" data-parity="dark" points="764.645000,708.742500 831.395000,742.117500 764.645000,775.492500 697.895000,742.117500"/>
<polygon id="C285" data-cell-id="285" data-x="4" data-y="6" data-parity="light" points="831.395000,742.117500 898.145000,775.492500 831.395000,808.867500 764.645000,775.492500"/>
<polygon id="C286" data-cell-id="286" data-x="5" data-y="6" data-parity="dark" points="898.145000,775.492500 964.895000,808.867500 898.145000,842.242500 831.395000,808.867500"/>
<polygon id="C287" data-cell-id="287" data-x="6" data-y="6" data-parity="light" points="964.895000,808.867500 1031.645000,842.242500 964.895000,875.617500 898.145000,842.242500"/>
<polygon id="C288" data-cell-id="288" data-x="7" data-y="6" data-parity="dark" points="1031.645000,842.242500 1098.395000,875.617500 1031.645000,908.992500 964.895000,875.617500"/>
<polygon id="C289" data-cell-id="289" data-x="-6" data-y="7" data-parity="dark" points="97.145000,441.742500 163.895000,475.117500 97.145000,508.492500 30.395000,475.117500"/>
<polygon id="C290" data-cell-id="290" data-x="-5" data-y="7" data-parity="light" points="163.895000,475.117500 230.645000,508.492500 163.895000,541.867500 97.145000,508.492500"/>
<polygon id="C291" data-cell-id="291" data-x="-4" data-y="7" data-parity="dark" points="230.645000,508.492500 297.395000,541.867500 230.645000,575.242500 163.895000,541.867500"/>
<polygon id="C292" data-cell-id="292" data-x="-3" data-y="7" data-parity="light" points="297.395000,541.867500 364.145000,575.242500 297.395000,608.617500 230.645000,575.242500"/>
<polygon id="C293" data-cell-id="293" data-x="-2" data-y="7" data-parity="dark" points="364.145000,575.242500 430.895000,608.617500 364.145000,641.992500 297.395000,608.617500"/>
<polygon id="C294" data-cell-id="294" data-x="-1" data-y="7" data-parity="light" points="430.895000,608.617500 497.645000,641.992500 430.895000,675.367500 364.145000,641.992500"/>
<polygon id="C295" data-cell-id="295" data-x="0" data-y="7" data-parity="dark" points="497.645000,641.992500 564.395000,675.367500 497.645000,708.742500 430.895000,675.367500"/>
<polygon id="C296" data-cell-id="296" data-x="1" data-y="7" data-parity="light" points="564.395000,675.367500 631.145000,708.742500 564.395000,742.117500 497.645000,708.742500"/>
<polygon id="C297" data-cell-id="297" data-x="2" data-y="7" data-parity="dark" points="631.145000,708.742500 697.895000,742.117500 631.145000,775.492500 564.395000,742.117500"/>
<polygon id="C298" data-cell-id="298" data-x="3" data-y="7" data-parity="light" points="697.895000,742.117500 764.645000,775.492500 697.895000,808.867500 631.145000,775.492500"/>
<polygon id="C299" data-cell-id="299" data-x="4" data-y="7" data-parity="dark" points="764.645000,775.492500 831.395000,808.867500 764.645000,842.242500 697.895000,808.867500"/>
<polygon id="C300" data-cell-id="300" data-x="5" data-y="7" data-parity="light" points="831.395000,808.867500 898.145000,842.242500 831.395000,875.617500 764.645000,842.242500"/>
<polygon id="C301" data-cell-id="301" data-x="6" data-y="7" data-parity="dark" points="898.145000,842.242500 964.895000,875.617500 898.145000,908.992500 831.395000,875.617500"/>
<polygon id="C302" data-cell-id="302" data-x="-5" data-y="8" data-parity="dark" points="97.145000,508.492500 163.895000,541.867500 97.145000,575.242500 30.395000,541.867500"/>
<polygon id="C303" data-cell-id="303" data-x="-4" data-y="8" data-parity="light" points="163.895000,541.867500 230.645000,575.242500 163.895000,608.617500 97.145000,575.242500"/>
<polygon id="C304" data-cell-id="304" data-x="-3" data-y="8" data-parity="dark" points="230.645000,575.242500 297.395000,608.617500 230.645000,641.992500 163.895000,608.617500"/>
<polygon id="C305" data-cell-id="305" data-x="-2" data-y="8" data-parity="light" points="297.395000,608.617500 364.145000,641.992500 297.395000,675.367500 230.645000,641.992500"/>
<polygon id="C306" data-cell-id="306" data-x="-1" data-y="8" data-parity="dark" points="364.145000,641.992500 430.895000,675.367500 364.145000,708.742500 297.395000,675.367500"/>
<polygon id="C307" data-cell-id="307" data-x="0" data-y="8" data-parity="light" points="430.895000,675.367500 497.645000,708.742500 430.895000,742.117500 364.145000,708.742500"/>
<polygon id="C308" data-cell-id="308" data-x="1" data-y="8" data-parity="dark" points="497.645000,708.742500 564.395000,742.117500 497.645000,775.492500 430.895000,742.117500"/>
<polygon id="C309" data-cell-id="309" data-x="2" data-y="8" data-parity="light" points="564.395000,742.117500 631.145000,775.492500 564.395000,808.867500 497.645000,775.492500"/>
<polygon id="C310" data-cell-id="310" data-x="3" data-y="8" data-parity="dark" points="631.145000,775.492500 697.895000,808.867500 631.145000,842.242500 564.395000,808.867500"/>
<polygon id="C311" data-cell-id="311" data-x="4" data-y="8" data-parity="light" points="697.895000,808.867500 764.645000,842.242500 697.895000,875.617500 631.145000,842.242500"/>
<polygon id="C312" data-cell-id="312" data-x="5" data-y="8" data-parity="dark" points="764.645000,842.242500 831.395000,875.617500 764.645000,908.992500 697.895000,875.617500"/>
<polygon id="C313" data-cell-id="313" data-x="-4" data-y="9" data-parity="dark" points="97.145000,575.242500 163.895000,608.617500 97.145000,641.992500 30.395000,608.617500"/>
<polygon id="C314" data-cell-id="314" data-x="-3" data-y="9" data-parity="light" points="163.895000,608.617500 230.645000,641.992500 163.895000,675.367500 97.145000,641.992500"/>
<polygon id="C315" data-cell-id="315" data-x="-2" data-y="9" data-parity="dark" points="230.645000,641.992500 297.395000,675.367500 230.645000,708.742500 163.895000,675.367500"/>
<polygon id="C316" data-cell-id="316" data-x="-1" data-y="9" data-parity="light" points="297.395000,675.367500 364.145000,708.742500 297.395000,742.117500 230.645000,708.742500"/>
<polygon id="C317" data-cell-id="317" data-x="0" data-y="9" data-parity="dark" points="364.145000,708.742500 430.895000,742.117500 364.145000,775.492500 297.395000,742.117500"/>
<polygon id="C318" data-cell-id="318" data-x="1" data-y="9" data-parity="light" points="430.895000,742.117500 497.645000,775.492500 430.895000,808.867500 364.145000,775.492500"/>
<polygon id="C319" data-cell-id="319" data-x="2" data-y="9" data-parity="dark" points="497.645000,775.492500 564.395000,808.867500 497.645000,842.242500 430.895000,808.867500"/>
<polygon id="C320" data-cell-id="320" data-x="3" data-y="9" data-parity="light" points="564.395000,808.867500 631.145000,842.242500 564.395000,875.617500 497.645000,842.242500"/>
<polygon id="C321" data-cell-id="321" data-x="4" data-y="9" data-parity="dark" points="631.145000,842.242500 697.895000,875.617500 631.145000,908.992500 564.395000,875.617500"/>
<polygon id="C322" data-cell-id="322" data-x="-3" data-y="10" data-parity="dark" points="97.145000,641.992500 163.895000,675.367500 97.145000,708.742500 30.395000,675.367500"/>
<polygon id="C323" data-cell-id="323" data-x="-2" data-y="10" data-parity="light" points="163.895000,675.367500 230.645000,708.742500 163.895000,742.117500 97.145000,708.742500"/>
<polygon id="C324" data-cell-id="324" data-x="-1" data-y="10" data-parity="dark" points="230.645000,708.742500 297.395000,742.117500 230.645000,775.492500 163.895000,742.117500"/>
<polygon id="C325" data-cell-id="325" data-x="0" data-y="10" data-parity="light" points="297.395000,742.117500 364.145000,775.492500 297.395000,808.867500 230.645000,775.492500"/>
<polygon id="C326" data-cell-id="326" data-x="1" data-y="10" data-parity="dark" points="364.145000,775.492500 430.895000,808.867500 364.145000,842.242500 297.395000,808.867500"/>
<polygon id="C327" data-cell-id="327" data-x="2" data-y="10" data-parity="light" points="430.895000,808.867500 497.645000,842.242500 430.895000,875.617500 364.145000,842.242500"/>
<polygon id="C328" data-cell-id="328" data-x="3" data-y="10" data-parity="dark" points="497.645000,842.242500 564.395000,875.617500 497.645000,908.992500 430.895000,875.617500"/>
<polygon id="C329" data-cell-id="329" data-x="-2" data-y="11" data-parity="dark" points="97.145000,708.742500 163.895000,742.117500 97.145000,775.492500 30.395000,742.117500"/>
<polygon id="C330" data-cell-id="330" data-x="-1" data-y="11" data-parity="light" points="163.895000,742.117500 230.645000,775.492500 163.895000,808.867500 97.145000,775.492500"/>
<polygon id="C331" data-cell-id="331" data-x="0" data-y="11" data-parity="dark" points="230.645000,775.492500 297.395000,808.867500 230.645000,842.242500 163.895000,808.867500"/>
<polygon id="C332" data-cell-id="332" data-x="1" data-y="11" data-parity="light" points="297.395000,808.867500 364.145000,842.242500 297.395000,875.617500 230.645000,842.242500"/>
<polygon id="C333" data-cell-id="333" data-x="2" data-y="11" data-parity="dark" points="364.145000,842.242500 430.895000,875.617500 364.145000,908.992500 297.395000,875.617500"/>
<polygon id="C334" data-cell-id="334" data-x="-1" data-y="12" data-parity="dark" points="97.145000,775.492500 163.895000,808.867500 97.145000,842.242500 30.395000,808.867500"/>
<polygon id="C335" data-cell-id="335" data-x="0" data-y="12" data-parity="light" points="163.895000,808.867500 230.645000,842.242500 163.895000,875.617500 97.145000,842.242500"/>
<polygon id="C336" data-cell-id="336" data-x="1" data-y="12" data-parity="dark" points="230.645000,842.242500 297.395000,875.617500 230.645000,908.992500 163.895000,875.617500"/>
<polygon id="C337" data-cell-id="337" data-x="0" data-y="13" data-parity="dark" points="97.145000,842.242500 163.895000,875.617500 97.145000,908.992500 30.395000,875.617500"/>
</g>
<polyline id="arena-boundary" points="97.145000,41.242500 30.395000,74.617500 97.145000,107.992500 30.395000,141.367500 97.145000,174.742500 30.395000,208.117500 97.145000,241.492500 30.395000,274.867500 97.145000,308.242500 30.395000,341.617500 97.145000,374.992500 30.395000,408.367500 97.145000,441.742500 30.395000,475.117500 97.145000,508.492500 30.395000,541.867500 97.145000,575.242500 30.395000,608.617500 97.145000,641.992500 30.395000,675.367500 97.145000,708.742500 30.395000,742.117500 97.145000,775.492500 30.395000,808.867500 97.145000,842.242500 30.395000,875.617500 97.145000,908.992500 163.895000,875.617500 230.645000,908.992500 297.395000,875.617500 364.145000,908.992500 430.895000,875.617500 497.645000,908.992500 564.395000,875.617500 631.145000,908.992500 697.895000,875.617500 764.645000,908.992500 831.395000,875.617500 898.145000,908.992500 964.895000,875.617500 1031.645000,908.992500 1098.395000,875.617500 1165.145000,908.992500 1231.895000,875.617500 1298.645000,908.992500 1365.395000,875.617500 1432.145000,908.992500 1498.895000,875.617500 1565.645000,908.992500 1632.395000,875.617500 1699.145000,908.992500 1765.895000,875.617500 1832.645000,908.992500 1899.395000,875.617500 1832.645000,842.242500 1899.395000,808.867500 1832.645000,775.492500 1899.395000,742.117500 1832.645000,708.742500 1899.395000,675.367500 1832.645000,641.992500 1899.395000,608.617500 1832.645000,575.242500 1899.395000,541.867500 1832.645000,508.492500 1899.395000,475.117500 1832.645000,441.742500 1899.395000,408.367500 1832.645000,374.992500 1899.395000,341.617500 1832.645000,308.242500 1899.395000,274.867500 1832.645000,241.492500 1899.395000,208.117500 1832.645000,174.742500 1899.395000,141.367500 1832.645000,107.992500 1899.395000,74.617500 1832.645000,41.242500 1765.895000,74.617500 1699.145000,41.242500 1632.395000,74.617500 1565.645000,41.242500 1498.895000,74.617500 1432.145000,41.242500 1365.395000,74.617500 1298.645000,41.242500 1231.895000,74.617500 1165.145000,41.242500 1098.395000,74.617500 1031.645000,41.242500 964.895000,74.617500 898.145000,41.242500 831.395000,74.617500 764.645000,41.242500 697.895000,74.617500 631.145000,41.242500 564.395000,74.617500 497.645000,41.242500 430.895000,74.617500 364.145000,41.242500 297.395000,74.617500 230.645000,41.242500 163.895000,74.617500 97.145000,41.242500" fill="none" stroke="#00ff00" stroke-width="3"/>
</svg>
